<svg width="761" height="1055" viewBox="0 0 761 1055" fill="none" xmlns="http://www.w3.org/2000/svg">
<path fill-rule="evenodd" clip-rule="evenodd" d="M377.828 0C451.63 0 511.459 59.9372 511.459 133.878C511.459 207.816 451.63 267.755 377.828 267.755C304.025 267.755 244.2 207.816 244.2 133.878C244.2 59.9366 304.025 0 377.828 0ZM473.87 801.684L473.339 800.375C461.175 770.258 452.118 738.674 444.634 707.104C444.634 707.104 427.695 633.567 379.698 632.623C351.214 632.065 333.058 652.831 321.821 676.648C309.725 702.209 302.39 737.671 299.712 779.699C294.067 868.319 298.774 1054.05 229.133 1054.99C159.496 1055.94 138.791 963.544 156.669 832.496C174.137 704.477 210.447 554.883 191.943 465.413L191.956 465.418C191.514 463.296 191.05 461.204 190.546 459.148C168.904 370.527 135.028 271.534 61.6247 213.083C-11.7782 154.63 -9.43308 111.727 16.4447 77.7818C42.325 43.8432 112.904 19.3295 155.254 102.299C197.601 185.266 230.06 334.702 344.874 335.645C459.685 336.587 510.497 278.132 550.968 219.679C591.431 161.227 642.248 97.1171 712.827 135.773C783.408 174.427 776.824 268.706 679.894 306.419C582.958 344.125 475.687 367.692 492.628 475.173C497.304 504.844 502.488 530.274 508.605 552.695L509.344 555.376L509.38 555.507L510.122 558.13C525.036 609.716 545.506 647.446 581.618 686.692L583.917 689.184C634.734 743.864 696.846 834.373 619.677 887.17C618.48 887.988 617.285 888.779 616.093 889.537L616.072 889.548L616.016 889.584C614.839 890.331 613.669 891.047 612.5 891.731L612.492 891.739L612.378 891.805C611.253 892.465 610.132 893.092 609.012 893.698L608.932 893.742L608.768 893.828C607.71 894.396 606.655 894.936 605.604 895.452L605.169 895.665C604.171 896.148 603.179 896.607 602.187 897.046L601.617 897.299C600.658 897.714 599.708 898.108 598.755 898.484L598.097 898.744C597.205 899.087 596.315 899.406 595.43 899.714L594.442 900.052C593.614 900.326 592.788 900.586 591.962 900.83C544.717 914.779 504.595 877.07 473.87 801.684Z" fill="#5F6FFF"/>
</svg>